<svg xmlns="http://www.w3.org/2000/svg" id="Layer_2" viewBox="0 0 434.78 208.94"><defs><style>.cls-1{fill:#005b9e;}.cls-2{fill:#f26522;}.cls-3{fill:#fff;}.cls-4{fill:#009bdf;}</style></defs><g id="Brightree_Logo_RGB"><g><rect class="cls-2" x="50.62" width="52.79" height="52.8"></rect><rect class="cls-1" x="116.48" y="27.8" width="35.53" height="35.53"></rect><rect class="cls-4" x="95.71" y="71" width="17.28" height="17.29"></rect></g><g><g><path class="cls-3" d="M266.67,186.43l-1.68,7.32c.26-.38,.62-.87,1.39-1.3,.77-.41,1.61-.58,2.3-.58,2.74,0,4.2,2.11,4.2,4.71,0,1.44-.74,7.03-6.17,7.03-2.76,0-3.22-1.42-3.48-2.3l-.48,2.09h-1.82l3.91-16.97h1.82Zm1.49,6.98c-1.3,0-2.59,.7-3.36,2.16-.46,.89-.86,2.5-.86,3.6,0,2.5,1.66,3.02,2.71,3.02,.96,0,1.92-.41,2.59-1.05,1.1-1.06,1.7-3.05,1.73-4.51,.05-2.4-1.42-3.22-2.81-3.22Z"></path><path class="cls-3" d="M285.2,192.09l-8.54,14.42c-1.06,1.66-1.54,2.43-3.67,2.43-.74,0-.96-.05-1.3-.1l.38-1.63c.26,.05,.58,.07,.89,.07,.26,0,.65,0,1.18-.31,.38-.22,.84-.96,1.01-1.22l1.49-2.54-1.25-11.11h1.85l.89,9.02,4.99-9.02h2.09Z"></path></g><g><path class="cls-3" d="M314.54,190.58c-.4,.7-.94,1.37-1.57,1.88-.77,.57-1.57,.93-3.41,1.57l3.85,9.37h-6.42l-3.11-8.47h-4.12l-1.94,8.47h-5.86l5.35-23.62h10.41c.5,0,.97,0,1.47,.03,.67,.07,2.21,.2,3.75,1.27,1.04,.73,2.61,2.31,2.61,5.55,0,.71-.1,2.34-1,3.95Zm-5.35-5.45c-.6-.77-1.3-1.04-2.98-1.04h-3.98l-1.47,6.46h4.95c.13,0,.74-.03,1.27-.13,1.04-.23,1.71-.77,2.21-1.67,.47-.87,.5-1.57,.5-1.98,0-.27,0-1-.5-1.64Z"></path><path class="cls-3" d="M346.53,191.65c-.5-.7-.63-.9-.96-1.21-.84-.77-2.14-1.11-3.25-1.11-1.44,0-2.21,.61-2.21,1.34,0,.94,1.2,1.24,2.71,1.67,.73,.2,1.44,.4,2.14,.67,1.74,.63,3.45,1.47,4.05,3.25,.23,.63,.23,1.34,.23,1.54,0,2.04-1.34,3.45-1.81,3.88-1.1,1.04-3.24,2.24-6.76,2.24-1.24,0-4.78-.07-7.33-3.01-.37-.43-.57-.67-1.07-1.57l4.31-2.14c.3,.53,.47,.8,.63,1,.5,.6,1.71,1.57,3.82,1.57,.26,0,.93-.04,1.67-.27,.4-.13,.7-.3,.94-.63,.07-.1,.2-.34,.2-.64,0-.13-.03-.37-.2-.6-.4-.57-1.14-.77-2.34-1.14-3.41-1.07-4.88-1.57-5.92-3.24-.2-.34-.67-1.21-.67-2.28,0-.5,.1-1.44,.77-2.47,.94-1.47,3.01-2.98,6.89-2.98s5.96,1.47,7.09,2.78c.3,.37,.53,.67,.97,1.44l-3.92,1.91Z"></path><path class="cls-3" d="M375.38,203.39h-5.49l4.21-18.27-8.83,18.27h-4.95l-.67-18.53-4.05,18.53h-5.52l5.29-23.62h8.73l.4,15.49,7.33-15.49h8.86l-5.32,23.62Z"></path><path class="cls-3" d="M413.28,203.39h-5.16l.24-1.2c-.27,.2-.54,.37-.8,.57-.63,.4-1.88,1.1-3.82,1.1s-3.11-.8-3.71-1.3c-1.1-.9-2.44-2.58-2.44-5.96,0-1.14,.2-4.02,1.94-6.76,2.34-3.68,5.59-4.25,7.22-4.25,.6,0,2.31,.06,3.75,1.14,.57,.44,.97,1,1.11,1.21l1.84-8.16h5.19s-5.35,23.62-5.35,23.62Zm-3.11-11.78c-.43-1.27-1.54-2.04-2.84-1.97-.9,.03-1.57,.47-1.81,.63-1.91,1.27-2.74,4.05-2.74,6.22,0,1.17,.27,1.84,.57,2.31,.53,.84,1.3,1.14,2.28,1.14,.83,0,2.24-.27,3.38-1.97,.86-1.31,1.37-3.42,1.37-4.92,0-.54-.03-.93-.2-1.44Z"></path><g><path class="cls-3" d="M332.52,195.7c.07-.73,.14-1.5,.14-2.28,0-.37,0-1.54-.34-2.67-.24-.91-.67-1.71-1.27-2.48-2.08-2.58-5.25-2.71-6.32-2.71-.87,0-3.11,.1-5.16,1.37-2.17,1.37-3.78,3.81-4.38,6.32-.27,1.07-.27,1.94-.27,2.34,0,3.34,1.61,6.35,4.68,7.63,1.54,.64,3.11,.67,3.71,.67,4.25,0,6.36-1.97,7.39-3.31,.3-.39,.57-.81,.85-1.24l-4.01-1.99c-.27,.43-.52,.86-.85,1.22-.8,.84-2.01,1.34-3.24,1.34-.37,0-1.11,0-1.94-.47-1.84-1-1.58-3.28-1.54-3.75h12.54Zm-10.31-5.55c.41-.33,1.17-.97,2.55-.97,1.94,0,2.84,1.27,3.11,1.97,.17,.5,.17,1.2,.17,1.31h-7.39c.63-1.37,.97-1.78,1.57-2.31Z"></path><polygon class="cls-3" points="331.56 199.34 331.56 199.34 331.56 199.34 331.56 199.34"></polygon></g><g><path class="cls-3" d="M396.41,195.7c.07-.73,.13-1.5,.13-2.28,0-.37,0-1.54-.33-2.67-.24-.91-.67-1.71-1.27-2.48-2.08-2.58-5.25-2.71-6.32-2.71-.87,0-3.12,.1-5.16,1.37-2.17,1.37-3.78,3.81-4.38,6.32-.27,1.07-.27,1.94-.27,2.34,0,3.34,1.61,6.35,4.68,7.63,1.54,.64,3.11,.67,3.71,.67,4.25,0,6.36-1.97,7.4-3.31,.3-.39,.57-.81,.84-1.24l-4.01-1.99c-.27,.43-.52,.86-.85,1.22-.8,.84-2.01,1.34-3.24,1.34-.37,0-1.11,0-1.94-.47-1.84-1-1.58-3.28-1.54-3.75h12.54Zm-10.31-5.55c.41-.33,1.17-.97,2.54-.97,1.94,0,2.84,1.27,3.11,1.97,.17,.5,.17,1.2,.17,1.31h-7.39c.63-1.37,.97-1.78,1.57-2.31Z"></path><polygon class="cls-3" points="395.45 199.34 395.45 199.34 395.45 199.34 395.45 199.34"></polygon></g></g></g><g><path class="cls-3" d="M434.78,105.99c0,.8-.13,1.51-.39,2.15-.26,.63-.61,1.17-1.06,1.6-.44,.44-.95,.77-1.53,1-.58,.23-1.19,.34-1.83,.34s-1.25-.11-1.83-.34c-.58-.23-1.09-.56-1.53-1-.44-.44-.79-.97-1.06-1.6-.26-.63-.39-1.35-.39-2.15s.13-1.51,.39-2.15c.26-.63,.61-1.17,1.06-1.6,.44-.44,.95-.77,1.53-1,.58-.23,1.19-.34,1.83-.34s1.25,.12,1.83,.34c.58,.23,1.09,.56,1.53,1,.44,.44,.79,.97,1.06,1.6,.26,.63,.39,1.35,.39,2.15Zm-1.03,0c0-.62-.09-1.18-.28-1.7-.19-.51-.45-.95-.78-1.32-.33-.37-.73-.65-1.2-.84-.46-.2-.97-.3-1.53-.3s-1.06,.1-1.53,.3c-.46,.2-.86,.48-1.2,.84-.33,.37-.59,.8-.78,1.32-.19,.51-.28,1.08-.28,1.7s.09,1.18,.28,1.7c.19,.51,.45,.95,.78,1.32,.33,.37,.73,.65,1.2,.84,.46,.2,.97,.3,1.53,.3s1.06-.1,1.53-.3c.46-.2,.86-.48,1.2-.84,.33-.37,.59-.8,.78-1.32,.19-.51,.28-1.08,.28-1.7Zm-2.39,2.8c-.22-.42-.46-.82-.72-1.2-.27-.38-.5-.68-.7-.91h-.94v2.11h-1v-5.46c.25-.06,.52-.1,.8-.13,.28-.03,.54-.04,.77-.04,.81,0,1.42,.15,1.84,.45,.42,.3,.63,.76,.63,1.37,0,.35-.09,.65-.27,.91-.18,.26-.44,.46-.78,.6,.09,.11,.2,.25,.32,.42,.12,.17,.25,.36,.38,.56,.13,.21,.26,.42,.39,.65,.13,.23,.25,.45,.35,.68h-1.08Zm-2.36-2.93h.53c.42,0,.77-.06,1.06-.18,.28-.12,.42-.36,.42-.73,0-.35-.13-.59-.4-.72-.27-.14-.59-.2-.96-.2-.1,0-.21,0-.32,0-.11,0-.22,.01-.32,.02v1.8Z"></path><g><path class="cls-3" d="M28.2,99.75c-3.64,0-7,.77-10,2.28-2.16,1.08-5.21,3.26-7.37,5.74v-25.23H0v72.66l.25,.14c1.9,1.1,4.81,2.05,8.65,2.84,3.84,.79,8.18,1.18,12.88,1.18,9.64,0,17.24-2.64,22.59-7.85,5.35-5.2,8.06-12.84,8.06-22.71s-2.07-16.95-6.16-21.77c-4.12-4.84-10.2-7.29-18.08-7.29Zm7.74,45.24c-3.17,3.34-7.54,5.03-12.96,5.03-4.72,0-8.8-.63-12.14-1.88v-26.2c.55-1.64,1.29-3.25,2.22-4.8,.91-1.54,2.04-2.94,3.35-4.17,1.3-1.2,2.81-2.16,4.48-2.84,1.65-.68,3.61-1.03,5.81-1.03,2.45,0,4.56,.5,6.28,1.48,1.74,1,3.2,2.37,4.34,4.07,1.16,1.73,2.03,3.81,2.58,6.2,.56,2.41,.84,5.05,.84,7.86,0,7.46-1.62,12.94-4.81,16.29Z"></path><path class="cls-3" d="M88.93,100.24c-1.42-.18-2.6-.27-3.6-.27-3.2,0-6.23,.9-8.55,2.54-2,1.41-3.45,2.87-4.75,4.81v-6.07h-10.82v57.15h10.84v-38.36c.48-2.77,1.74-5.1,3.74-6.92,1.99-1.82,4.85-2.74,8.48-2.74,1,0,2.48,.1,3.56,.33,1.08,.22,1.92,.43,3.01,.82l.54,.19,2.13-10.42-.43-.13c-1.38-.44-2.78-.75-4.15-.93Z"></path><rect class="cls-3" x="98.94" y="101.26" width="10.84" height="57.15"></rect><path class="cls-3" d="M162.03,100.62c-3.44-.57-7.55-.87-12.22-.87-9.93,0-17.54,2.68-22.61,7.97-5.06,5.27-7.62,12.87-7.62,22.59s1.98,17.1,5.88,21.56c3.92,4.47,10.08,6.74,18.3,6.74,4.1,0,7.64-.59,10.53-1.74,2.14-.86,4.69-2.62,6.47-4.43v3.43c0,2.71-.25,5.08-.73,7.05-.48,1.89-1.36,3.46-2.63,4.67-1.28,1.22-3.04,2.13-5.22,2.71-2.23,.59-5.1,.89-8.51,.89-1.27,0-2.59-.11-3.92-.31-1.36-.21-2.73-.49-4.06-.84-1.32-.35-2.6-.76-3.79-1.22-1.29-.5-2.32-.93-3.17-1.32l-.54-.25-2.6,9.86,.38,.18c2.16,1.01,4.79,1.81,7.82,2.4,3.05,.57,7.04,.87,11.86,.87,8.42,0,14.92-1.86,19.31-5.52,4.41-3.68,6.65-9.34,6.65-16.8v-55.22l-.34-.12c-2.68-.92-5.79-1.68-9.23-2.27Zm-26.23,13.6c3-3.4,7.21-5.12,12.54-5.12,2.68,0,5.07,.14,7.13,.42,1.94,.26,3.68,.61,5.18,1.05v27.16c-.9,3.43-2.53,6.23-4.87,8.35-2.32,2.11-5.61,3.19-9.77,3.19-5.37,0-9.2-1.65-11.38-4.91-2.23-3.33-3.35-8.13-3.35-14.27,0-7.11,1.52-12.45,4.53-15.88Z"></path><path class="cls-3" d="M229.28,104.98c-1.5-1.73-4.15-3.42-6.43-4.1-2.26-.68-5.14-1.37-9.21-1.25-4.37,.13-8.01,.97-11.13,2.58-2.3,1.18-5.23,2.92-8.09,5.99v-25.65h-10.84v75.86h10.84v-36.27c.37-1.56,1.12-3.15,2.27-4.87,1.17-1.76,2.43-3.16,3.73-4.15,1.77-1.34,3.29-2.22,4.78-2.76,1.72-.62,3.5-.93,5.29-.93,2.55,0,4.7,.35,6.38,1.03,1.65,.67,2.98,1.73,3.96,3.13,.99,1.43,1.68,3.26,2.05,5.42,.39,2.24,.58,4.89,.58,7.88v31.52h10.84v-33.66c0-4.23-.12-8.63-.96-12.04-.7-2.84-2.06-5.43-4.05-7.72Z"></path><path class="cls-3" d="M275.99,148.45c-1.77,.62-3.44,1.13-4.94,1.54-1.41,.38-3.01,.56-4.74,.56-2.62,0-4.41-.83-5.46-2.54-1.09-1.77-1.63-4.88-1.63-9.26v-28.16h16.9v-9.34h-16.9v-14.05l-10.84,2.82v11.22h-9.52v9.34h9.52v31.48c0,6.22,1.1,10.78,3.26,13.57,2.19,2.82,5.91,4.25,11.04,4.25,3.01,0,5.87-.35,8.52-1.03,2.59-.67,5.08-1.53,7.4-2.54l.42-.18-2.54-7.87-.48,.17Z"></path><path class="cls-3" d="M357.42,104.31c-1.57-1.18-4.51-2.85-7.67-3.66-2.72-.7-5.24-1.01-8.16-1.01-8.01,0-15.3,2.9-20.02,7.97-5.26,5.66-7.93,13.15-7.93,22.27,0,4.51,.54,8.66,1.62,12.34,1.02,3.46,2.71,6.54,5.18,9.41,2.24,2.6,5.41,4.81,8.93,6.22,3.46,1.39,7.31,2.04,12.12,2.04,4.39,0,8.51-.56,12.23-1.68,3.75-1.11,6.93-2.63,9.46-4.52l.34-.25-4.21-8.42-.48,.4c-1.91,1.57-3.93,2.76-6.17,3.61-2.81,1.07-5.91,1.67-8.72,1.67-6.7,0-11.47-1.69-14.58-5.17-3.08-3.44-4.7-8.35-4.59-13.87h40.05l.06-.43c.21-1.43,.36-2.93,.44-4.44,.07-1.59,.11-2.89,.11-3.98,0-4.33-.82-8.25-2.44-11.65-1.33-2.81-3.1-4.99-5.55-6.86Zm-32.17,19.3c.56-5.07,3.45-9.06,5.82-10.97,2.08-1.67,5.63-3.65,10.79-3.65,4.23,0,7.32,1.08,9.74,3.39,2.52,2.41,3.64,6.09,3.42,11.23h-29.78Z"></path><path class="cls-3" d="M315.95,101.31l-.43-.14c-1.38-.43-2.77-.75-4.15-.93-1.42-.18-2.6-.27-3.59-.27-3.2,0-6.24,.9-8.56,2.54-2,1.41-3.46,2.87-4.75,4.8v-6.07h-10.82v57.15h10.84v-38.36c.48-2.76,1.74-5.09,3.74-6.92,2-1.82,4.85-2.74,8.49-2.74,.99,0,2.48,.1,3.56,.33,1.07,.22,1.91,.43,3.01,.82l.54,.19,2.13-10.42Z"></path><path class="cls-3" d="M420.45,111.17c-1.34-2.81-3.1-4.99-5.55-6.86-1.56-1.18-4.51-2.85-7.66-3.66-2.73-.7-5.24-1.01-8.15-1.01-8.02,0-15.31,2.9-20.02,7.97-5.27,5.66-7.94,13.15-7.94,22.27,0,4.52,.55,8.67,1.62,12.34,1.02,3.47,2.71,6.55,5.18,9.41,2.23,2.6,5.41,4.81,8.93,6.22,3.46,1.39,7.31,2.04,12.12,2.04,4.39,0,8.5-.56,12.22-1.68,3.75-1.12,6.93-2.63,9.46-4.52l.34-.25-4.21-8.42-.48,.4c-1.91,1.58-3.93,2.76-6.17,3.61-2.81,1.07-5.91,1.67-8.72,1.67-6.7,0-11.47-1.69-14.58-5.17-3.08-3.44-4.7-8.35-4.59-13.87h40.05l.06-.43c.21-1.41,.36-2.91,.44-4.45,.07-1.6,.11-2.9,.11-3.97,0-4.33-.82-8.25-2.44-11.65Zm-37.72,12.44c.56-5.08,3.45-9.06,5.82-10.97,2.07-1.67,5.63-3.65,10.79-3.65,4.22,0,7.32,1.08,9.74,3.39,2.52,2.41,3.64,6.09,3.42,11.23h-29.78Z"></path></g></g></g></svg>