<?xml version="1.0" encoding="UTF-8"?>
<svg id="Layer_1" data-name="Layer 1" xmlns="http://www.w3.org/2000/svg" viewBox="0 0 127.9 127.9">
  <defs>
    <style>
      .cls-1 {
        fill: #00a4c9;
      }

      .cls-1, .cls-2, .cls-3, .cls-4 {
        stroke-width: 0px;
      }

      .cls-2 {
        fill: #71c100;
      }

      .cls-3 {
        fill: #fff;
      }

      .cls-4 {
        fill: #044872;
      }
    </style>
  </defs>
  <g>
    <g>
      <polyline class="cls-3" points="95.32 52.82 86.81 59.56 67.86 59.56 67.31 53.03 82.58 52.67 95.38 39.81"/>
      <polygon class="cls-4" points="87.14 60.51 66.98 60.51 66.27 52.1 82.17 51.73 94.7 39.14 96.05 40.48 82.98 53.62 68.34 53.96 68.73 58.61 86.48 58.61 94.73 52.08 95.91 53.57 87.14 60.51"/>
    </g>
    <g>
      <g>
        <polygon class="cls-2" points="29.1 79.15 32.21 93.17 56.66 93.1 68.41 108.92 76.57 108.22 64.72 81.29 46.89 79.15 29.1 79.15"/>
        <path class="cls-4" d="m67.97,109.91l-11.78-15.85-24.74.07-3.53-15.93h19.09s18.37,2.21,18.37,2.21l12.61,28.64-10.01.86Zm-10.83-17.75l11.72,15.77,6.31-.54-11.1-25.22-17.24-2.07h-16.55l2.69,12.12,24.17-.07Z"/>
      </g>
      <g>
        <path class="cls-3" d="m46.45,31.77c-4.42-1.39-9.1.96-10.35,4.94-1.25,3.98,1.15,15.1,1.15,15.1l6.79.32s6.79-6.28,8.08-10.39c1.29-4.11-1.25-8.57-5.68-9.96Z"/>
        <path class="cls-4" d="m44.41,53.09l-7.92-.37-.15-.71c-.1-.46-2.44-11.41-1.13-15.58.68-2.16,2.31-4,4.47-5.05,2.2-1.07,4.71-1.25,7.06-.51h0c2.37.74,4.33,2.3,5.52,4.39,1.2,2.11,1.48,4.51.78,6.76-1.35,4.31-8.05,10.54-8.34,10.8l-.29.27Zm-6.37-2.2l5.65.26c1.28-1.23,6.47-6.34,7.53-9.71.54-1.73.33-3.6-.61-5.25-.95-1.67-2.53-2.92-4.44-3.52h0c-1.89-.59-3.9-.45-5.67.4-1.7.82-2.97,2.25-3.49,3.91-.89,2.85.33,10.42,1.03,13.9Z"/>
      </g>
      <g>
        <polygon class="cls-3" points="45.82 52.08 47.51 79.05 30.43 84.44 29.1 79.15 32.88 49.45 45.82 52.08"/>
        <path class="cls-4" d="m29.76,85.65l-1.62-6.45.02-.18,3.91-30.71,14.66,2.98,1.78,28.44-18.75,5.92Zm.31-6.56l1.04,4.14,15.4-4.86-1.59-25.5-11.23-2.28-3.63,28.5Z"/>
      </g>
      <g>
        <path class="cls-3" d="m17.81,61.39l8.44,2.92,1.57,28.96,28.84-.17,4.71,7.37H21.43l-.99-32.21-4.88-1.92s-3.18-.83-2.02-3.85c1.03-2.69,4.27-1.09,4.27-1.09Z"/>
        <path class="cls-4" d="m63.11,101.42H20.51l-1-32.51-4.25-1.68c-.36-.11-1.86-.62-2.57-2-.32-.63-.59-1.67-.04-3.09.36-.94,1-1.61,1.84-1.94,1.55-.61,3.29.12,3.68.3l8.99,3.11,1.56,28.69,28.46-.16,5.93,9.27Zm-40.76-1.9h37.28l-3.5-5.46-29.22.17-1.59-29.23-7.94-2.76c-.36-.17-1.46-.56-2.21-.27-.22.09-.53.27-.75.85-.24.62-.26,1.13-.05,1.54.32.63,1.14.98,1.43,1.06l.1.03,5.46,2.15.98,31.92Z"/>
      </g>
      <g>
        <path class="cls-3" d="m26.84,73.44l28.3.1c1.48,0,2.7,1.18,2.75,2.66h0c.06,1.57-1.2,2.87-2.77,2.87l-28.01-.04-.28-5.58Z"/>
        <path class="cls-4" d="m55.13,80.02h0l-28.91-.04-.37-7.49,29.3.1c2,0,3.62,1.57,3.7,3.57.04,1.02-.33,1.99-1.04,2.72-.71.73-1.66,1.14-2.68,1.14Zm-27.11-1.94l27.1.04h0c.5,0,.96-.2,1.31-.56.35-.36.53-.83.51-1.33-.04-.97-.83-1.74-1.81-1.74l-27.29-.09.18,3.68Z"/>
      </g>
      <g>
        <polygon class="cls-3" points="50.2 79.05 51.17 93.17 54.63 93.11 53.64 79.06 50.2 79.05"/>
        <path class="cls-4" d="m50.28,94.14l-1.1-16.03h5.34s1.12,15.94,1.12,15.94l-5.37.09Zm.94-14.13l.84,12.2,1.56-.03-.86-12.17h-1.53Z"/>
      </g>
      <g>
        <polyline class="cls-3" points="36.71 60.33 39.65 73.44 58.62 73.54 61.37 68.45 47.01 66.93 46.21 59.14"/>
        <polygon class="cls-4" points="59.18 74.49 38.89 74.39 35.78 60.54 37.64 60.12 40.41 72.49 58.05 72.58 59.86 69.25 46.15 67.8 45.27 59.23 47.16 59.04 47.88 66.07 62.88 67.66 59.18 74.49"/>
      </g>
      <g>
        <rect class="cls-3" x="51.42" y="100.47" width="3.92" height="12.67"/>
        <path class="cls-4" d="m56.29,114.09h-5.82v-14.57h5.82v14.57Zm-3.92-1.9h2.02v-10.77h-2.02v10.77Z"/>
      </g>
      <g>
        <rect class="cls-3" x="27.14" y="100.47" width="3.92" height="12.67"/>
        <path class="cls-4" d="m32.01,114.09h-5.82v-14.57h5.82v14.57Zm-3.92-1.9h2.02v-10.77h-2.02v10.77Z"/>
      </g>
    </g>
    <g>
      <polygon class="cls-1" points="110.09 113.14 94.18 113.14 90.66 75.21 113.69 75.21 110.09 113.14"/>
      <path class="cls-4" d="m110.96,114.09h-17.64l-3.69-39.83h25.12l-3.78,39.83Zm-15.91-1.9h14.18l3.42-36.03h-20.94l3.34,36.03Z"/>
    </g>
    <g>
      <polygon class="cls-3" points="94.59 37.28 107.57 37.28 113.76 68.89 114.56 84.07 89.31 84.07 90.27 70.89 94.59 37.28"/>
      <path class="cls-4" d="m115.56,85.02h-27.27l1.03-14.26,4.43-34.43h14.6l6.36,32.51.85,16.18Zm-25.23-1.9h23.22l-.74-14.12-6.03-30.78h-11.37l-4.21,32.75-.88,12.14Z"/>
    </g>
    <g>
      <path class="cls-3" d="m94.27,15.06c4.87-1.27,9.81,1.52,10.95,5.9,1.14,4.38-1.56,16.32-1.56,16.32h-8.34s-6.55-7.21-7.73-11.73c-.47-1.8-.28-3.62.43-5.25,1.07-2.47,3.32-4.47,6.25-5.24Z"/>
      <path class="cls-4" d="m104.41,38.23h-9.52l-.28-.31c-.27-.3-6.72-7.43-7.94-12.13-.51-1.95-.34-3.98.47-5.87,1.22-2.81,3.79-4.98,6.89-5.78,5.27-1.37,10.82,1.64,12.11,6.58,1.18,4.55-1.44,16.28-1.55,16.77l-.17.74Zm-8.67-1.9h7.14c.56-2.64,2.32-11.63,1.41-15.13-1.03-3.94-5.51-6.33-9.79-5.22h0c-2.53.66-4.63,2.41-5.62,4.7-.65,1.5-.78,3.1-.38,4.63.97,3.74,5.99,9.61,7.23,11.02Z"/>
    </g>
    <polygon class="cls-4" points="105.97 76.16 103.47 50.75 105.36 50.57 107.68 74.15 114.1 73.75 114.22 75.65 105.97 76.16"/>
    <g>
      <circle class="cls-3" cx="99.62" cy="48.5" r="2.16"/>
      <path class="cls-4" d="m99.62,51.61c-.2,0-.39-.02-.59-.06-.82-.16-1.52-.62-1.99-1.31s-.64-1.52-.48-2.33c.32-1.69,1.96-2.8,3.64-2.48.82.16,1.52.62,1.99,1.31.47.69.64,1.52.48,2.33s-.62,1.52-1.31,1.99c-.52.36-1.13.54-1.74.54Zm0-4.33c-.57,0-1.08.41-1.19.99-.13.66.31,1.29.96,1.42.32.06.64,0,.91-.19.27-.18.45-.46.51-.78s0-.64-.19-.91c-.18-.27-.46-.45-.78-.51-.08-.01-.15-.02-.23-.02Z"/>
    </g>
    <g>
      <line class="cls-3" x1="102.82" y1="37.57" x2="100.02" y2="46.37"/>
      <rect class="cls-4" x="96.8" y="41.02" width="9.24" height="1.9" transform="translate(30.71 125.92) rotate(-72.37)"/>
    </g>
    <g>
      <line class="cls-2" x1="97.58" y1="84.54" x2="98.93" y2="113.14"/>
      <rect class="cls-4" x="97.33" y="84.53" width="1.85" height="28.63" transform="translate(-4.56 4.75) rotate(-2.71)"/>
    </g>
  </g>
  <g>
    <polyline class="cls-1" points="94.72 37.96 97.97 42.16 101.42 37.99"/>
    <polygon class="cls-4" points="97.94 43.69 93.97 38.54 95.47 37.38 97.99 40.64 100.69 37.39 102.15 38.6 97.94 43.69"/>
  </g>
</svg>