<?xml version="1.0" encoding="utf-8"?>
<!-- Generator: Adobe Illustrator 25.2.3, SVG Export Plug-In . SVG Version: 6.00 Build 0)  -->
<svg version="1.1" id="Layer_1" xmlns="http://www.w3.org/2000/svg" xmlns:xlink="http://www.w3.org/1999/xlink" x="0px" y="0px"
	 viewBox="0 0 1440 307.06" style="enable-background:new 0 0 1440 307.06;" xml:space="preserve">
<style type="text/css">
	.st0{fill:#00AEEF;}
</style>
<g id="white">
	<g>
		<path class="st0" d="M939.72,262.45h-11.52c-0.06-0.57-0.09-1-0.09-1.27c-0.27-3.47-1.05-5.66-2.33-6.56
			c-1.28-0.89-4.28-1.33-9.02-1.33c-5.59,0-9.24,0.52-10.95,1.54c-1.72,1.03-2.58,3.2-2.58,6.51c0,3.92,0.69,6.28,2.1,7.06
			c1.39,0.79,6.02,1.4,13.86,1.82c9.27,0.52,15.27,1.84,17.99,3.96c2.72,2.12,4.09,6.54,4.09,13.25c0,8.26-1.6,13.6-4.79,16.01
			c-3.19,2.41-10.23,3.62-21.11,3.62c-9.79,0-16.28-1.18-19.49-3.55c-3.2-2.37-4.8-7.16-4.8-14.38l-0.04-2.27h11.48l0.04,1.33
			c0,4.35,0.76,7.01,2.27,7.99c1.53,0.98,5.67,1.47,12.47,1.47c5.29,0,8.67-0.57,10.13-1.68c1.46-1.13,2.19-3.71,2.19-7.79
			c0-3.01-0.56-5-1.66-5.98c-1.11-0.99-3.51-1.59-7.19-1.81l-6.52-0.4c-9.87-0.58-16.17-1.94-18.91-4.11
			c-2.74-2.15-4.11-6.78-4.11-13.87c0-7.27,1.65-12.09,4.95-14.52c3.3-2.4,9.9-3.62,19.78-3.62c9.37,0,15.68,1.11,18.94,3.3
			c3.26,2.22,4.89,6.53,4.89,12.92L939.72,262.45z"/>
		<path class="st0" d="M986.44,243.87c11.31,0,18.58,1.88,21.83,5.61c3.25,3.75,4.88,12.13,4.88,25.14
			c0,14.22-1.64,23.18-4.91,26.88c-3.26,3.7-11.17,5.55-23.71,5.55c-11.29,0-18.61-1.82-21.91-5.47
			c-3.31-3.66-4.97-11.71-4.97-24.14c0-14.79,1.62-24.09,4.88-27.88C965.78,245.77,973.74,243.87,986.44,243.87z M985.54,254.03
			c-7.91,0-12.54,1.02-13.88,3.05c-1.33,2.02-2,9.04-2,21.05c0,8.89,0.79,14.24,2.34,16.05c1.56,1.82,6.16,2.73,13.81,2.73
			c7.3,0,11.68-1.02,13.13-3.06c1.46-2.04,2.18-8.24,2.18-18.58c0-10.36-0.68-16.49-2.06-18.39
			C997.68,254.98,993.17,254.03,985.54,254.03z"/>
		<path class="st0" d="M1044.09,254.28v16.85h27.87v9.91h-27.87v25.51h-11.77v-62.19h41.26v9.91H1044.09z"/>
		<path class="st0" d="M1121.69,254.9v51.66h-11.77V254.9h-17.96v-10.53h48.31v10.53H1121.69z"/>
		<path class="st0" d="M1247.01,244.37l-16.63,62.19h-17.44l-8.66-31.93c-0.79-2.89-1.72-6.74-2.78-11.59l-0.86-3.81h-0.41
			l-0.91,3.85l-0.87,3.84c-0.64,2.59-1.33,5.17-2.05,7.76l-8.88,31.88h-17.27l-16.12-62.19h12.02l8.98,34.1
			c0.54,2.19,1.23,5.21,2.05,9.07l0.95,4.56l0.91,4.56h0.41c0.49-1.99,0.85-3.51,1.1-4.56l1.09-4.52c0.58-2.38,1.39-5.4,2.42-9.08
			l9.56-34.13h13.85l9.34,34.13c0.79,2.92,1.56,5.95,2.32,9.08l1.05,4.52l1.09,4.56h0.37l1.01-4.56l0.95-4.56
			c0.79-3.68,1.51-6.73,2.15-9.12l9.2-34.05H1247.01z"/>
		<path class="st0" d="M1294.24,294.66h-26.83l-3.87,11.9h-12.48l20.68-62.19h17.72l21,62.19h-12.25L1294.24,294.66z M1291.51,286
			l-10.74-32.5l-10.57,32.5H1291.51z"/>
		<path class="st0" d="M1327.03,306.56v-62.19h30.66c7.63,0,12.9,1.32,15.8,3.97c2.88,2.64,4.34,7.44,4.34,14.36
			c0,6.31-0.72,10.61-2.18,12.91c-1.44,2.31-4.4,3.9-8.89,4.79v0.4c6.88,0.43,10.31,4.44,10.31,12.06v13.7h-11.76v-11.33
			c0-6.41-3.17-9.61-9.49-9.61h-17.02v20.94H1327.03z M1338.8,275.71h16.97c4.04,0,6.73-0.71,8.05-2.17
			c1.32-1.45,1.98-4.35,1.98-8.71c0-4.44-0.58-7.3-1.72-8.6c-1.14-1.3-3.64-1.94-7.49-1.94h-17.81V275.71z"/>
		<path class="st0" d="M1408.91,254.28v16.1h29.24v8.68h-29.24v17.59H1440v9.91h-42.86v-62.19h42.61v9.91H1408.91z"/>
	</g>
	<path d="M170.85,156.36l-32.13,72.07H91.46l54.18-126.05l34.93,8.13c16.4-4.71,34.58-7.07,54.54-7.07
		c24.72,0,43.97,4.59,57.75,13.77c20.44-9.18,46.83-13.77,79.13-13.77c19.97,0,36.84,3.18,50.62,9.54
		c15.44,7.54,23.18,17.77,23.18,30.71c0,4.94-1.19,10.12-3.57,15.54l-29.94,69.2h-47.32l30.95-68.85c2.11-4.69,3.17-9.18,3.17-13.42
		c0-7.76-3.21-13.95-9.62-18.54c-6.42-4.58-14.5-6.88-24.24-6.88c-27.81,0-46.95,11.89-57.39,35.67l-32.08,72.02h-47.54l31.72-72.08
		c1.51-3.3,2.27-6.59,2.27-9.87c0-7.28-3.27-13.4-9.81-18.34c-6.54-4.94-14.57-7.4-24.09-7.4
		C200.72,120.74,181.55,132.62,170.85,156.36 M912.89,103.44l-53.12,124.99c-8.8,23.54-25.54,41.53-50.26,54.01
		c-23.52,12.01-52.02,18.01-85.55,18.01l8.21-20.12c34.93,0,58.69-13.89,71.29-41.67l33.86-75.55c2.85-6.11,4.29-11.53,4.29-16.24
		c0-16.24-13.51-24.36-40.52-24.36c-16.57,0-30.9,4.23-42.99,12.71c-10.89,7.76-18.84,18.01-23.8,30.71
		c-2.14,5.18-3.21,10.13-3.21,14.84c0,9.18,3.56,16.53,10.64,22.05c7.09,5.54,16.07,8.3,26.92,8.3c16.33,0,23.41,0,21.28,0
		l-5.71,17.31H531.56c-22.82,0-41.42-4.54-55.8-13.61c-14.37-9.05-21.57-20.41-21.57-34.06c0-4.71,0.84-9.42,2.51-14.13
		c6.41-17.42,20.79-32.07,43.13-43.96c22.33-11.89,48-17.83,76.99-17.83c19.5,0,36.23,3.41,50.26,10.24l0.72-1.42
		c8.78-1.42,17.58-2.71,26.37-3.89c17.36-3.06,26.02-4.69,26.02-4.94l-42.42,93.92h-47.25c0,0.22,5.08-11.3,15.22-34.58
		c3.05-7.07,4.58-13.07,4.58-18.02c0-15.07-13.54-22.61-40.63-22.61c-16.17,0-30.29,4.24-42.42,12.72
		c-10.93,7.76-18.89,17.88-23.88,30.36c-1.9,5.18-2.85,10.12-2.85,14.82c0,8.95,3.51,16.13,10.51,21.54
		c7,5.42,15.99,8.12,26.92,8.12l162.55,0.01c-11.22-8.55-16.82-18.91-16.82-31.08c0-4.71,0.83-9.41,2.49-14.13
		c6.67-17.65,21.33-32.47,44.03-44.49c22.7-12,48.54-18.01,77.54-18.01c20.19,0,37.18,3.42,50.97,10.24l1.07-1.42
		c8.8-1.41,17.6-2.83,26.38-4.23C903.99,105.2,912.89,103.68,912.89,103.44 M983.72,42.9c4.95,4.81,10.84,7.23,17.69,7.23
		c7.08,0,13.03-2.42,17.87-7.23c4.85-4.83,7.26-10.78,7.26-17.83c0-6.83-2.41-12.72-7.26-17.65c-4.84-4.95-10.79-7.42-17.87-7.42
		c-6.85,0-12.75,2.47-17.69,7.42c-4.96,4.93-7.43,10.82-7.43,17.65C976.29,32.13,978.77,38.07,983.72,42.9z M1233.25,165.58
		c-2.13,5.65-3.2,11.07-3.2,16.24c0,13.67,6.65,24.72,19.96,33.19c14.26,8.72,33.98,13.07,59.18,13.07c41.59,0,83.18,0,124.76,0
		l6.06-18.01h-124.32c-12.15,0-21.55-2.81-28.23-8.45c-6.67-5.62-10-12.88-10-21.8c0-4.67,0.96-9.49,2.86-14.42
		c4.53-11.95,13.35-22.21,26.46-30.77c13.11-8.55,26.81-12.82,41.12-12.82c10.97,0,20.39,2.32,28.25,6.95
		c7.87,4.62,11.79,10.87,11.79,18.71c0,3.57-0.94,7.24-2.84,11.06h-53.46l-8.55,18.01h100.51l6.42-13.42
		c2.85-5.65,4.27-11.06,4.27-16.24c0-13.19-7.42-23.83-22.27-31.94c-14.85-8.12-33.91-12.18-57.2-12.18c-30.19,0-56.39,5.99-78.6,18
		C1253.98,132.75,1239.67,147.69,1233.25,165.58 M148.53,1.76c-9.04,0.5-17.96,0.87-26.76,1.11C102.93,6.1,90.61,14.13,84.85,26.98
		L0,228.43h52.05L148.53,1.76z M1048.94,228.43l32.14-72.07c10.7-23.74,29.85-35.62,57.45-35.62c9.75,0,17.78,2.58,24.08,7.77
		c6.31,5.17,9.46,11.53,9.46,19.07c0,4-0.94,8-2.84,11.99l-30.56,68.86h47.32l29.93-69.2c2.38-5.43,3.57-10.61,3.57-15.54
		c0-12.94-7.72-23.18-23.17-30.71c-13.79-6.36-30.66-9.54-50.61-9.54c-20.21,0-38.39,2.36-54.55,7.07l-35.29-8.13l-46.74,108.74
		H955.6l45.64-101.33c-9.03,0.48-17.95,0.83-26.74,1.07c-18.76,3.06-30.9,10.71-36.37,22.94l-42.21,94.63H1048.94"/>
</g>
</svg>
