<?xml version="1.0" encoding="utf-8"?>
<!-- Generator: Adobe Illustrator 26.3.1, SVG Export Plug-In . SVG Version: 6.00 Build 0)  -->
<svg version="1.1" id="Layer_1" xmlns="http://www.w3.org/2000/svg" xmlns:xlink="http://www.w3.org/1999/xlink" x="0px" y="0px"
	 viewBox="0 0 435.7 179.1" style="enable-background:new 0 0 435.7 179.1;" xml:space="preserve">
<style type="text/css">
	.st0{fill:#61C2B7;}
	.st1{fill:#004750;}
</style>
<g>
	<g>
		<g>
			<g>
				<path class="st0" d="M202.8,125.1c-11.6-1.3-21.4,7.9-21.4,19.3v29.1h9.2v-8.2l20.3-6.9v15.1h9.2v-28.8
					C220,134.7,212.6,126.2,202.8,125.1 M210.7,148.9l-20.3,6.9v-11.1c0-4.8,3.2-8.7,7.7-10c6.9-1.8,12.9,3.4,12.9,9.8v4.5H210.7z"
					/>
				<path class="st0" d="M248.8,125.1c-11.6-1.3-21.4,7.9-21.4,19.3v29.1h9.2v-8.2l20.3-6.9v15.1h9.2v-28.8
					C266.2,134.7,258.8,126.2,248.8,125.1 M257,148.9l-20.3,6.9v-11.1c0-4.8,3.2-8.7,7.7-10c6.9-1.8,12.9,3.4,12.9,9.8v4.5H257z"/>
				<path class="st0" d="M291.1,126.2h-18v47.3h9.2v-8.7h8.5c10,0,18.5-7.4,19.6-17.2C311.7,136,302.4,126.2,291.1,126.2
					 M291.1,155.8h-8.7v-20.3h9c6.6,0,11.6,6.1,9.8,12.9C300.1,152.6,295.8,155.8,291.1,155.8"/>
				<path class="st0" d="M350.8,160.6c-2.9,3.2-6.9,4.8-11.1,4.8c-8.5,0-15.3-6.9-15.3-15.3c0-8.5,6.9-15.3,15.3-15.3
					c4.2,0,7.9,1.6,10.8,4.5l6.6-6.6c-4.8-4.8-10.8-7.1-17.4-7.1c-13.5,0-24.6,11.1-24.6,24.6c0,13.5,11.1,24.6,24.6,24.6
					c6.9,0,13.2-2.9,18-7.7L350.8,160.6z"/>
			</g>
			<g>
				<path class="st0" d="M148.1,162.5c0,5.5-4,9.7-9,9.7c-2.7,0-4.6-1-5.9-2.7v2.2h-4.7V146h4.7v9.5c1.3-1.7,3.3-2.7,5.9-2.7
					C144.1,152.9,148.1,157.1,148.1,162.5z M143.4,162.5c0-3.1-2.2-5.2-5.1-5.2c-2.9,0-5.1,2.1-5.1,5.2c0,3.1,2.2,5.2,5.1,5.2
					C141.2,167.7,143.4,165.6,143.4,162.5z"/>
				<path class="st0" d="M167.8,153.4l-6.7,18.3c-1.9,5.3-5,7.6-9.7,7.3v-4.4c2.6,0,3.9-1.1,4.8-3.5l-7.5-17.8h5.2l4.8,12.3
					l4.1-12.3H167.8z"/>
			</g>
		</g>
	</g>
	<g id="Layer_2_00000063621334692354256610000002048814034067963069_">
		<g id="Product_00000026137046752463294160000005953783240740195990_">
			<path class="st1" d="M0,54.4C0,24.1,22.9,0.1,54.7,0.1c19.1,0,36.2,9.7,45,25l-15,8.7c-5.5-10.3-16.9-16.9-30.1-16.9
				c-22.6,0-37.5,16-37.5,37.5S32.2,92,54.7,92c13.2,0,24.7-6.6,30.1-16.9l15,8.5c-8.7,15.3-25.7,25.1-45,25.1
				C22.9,108.7,0,84.8,0,54.4z"/>
			<path class="st1" d="M105.6,69.4c-0.2-21.6,17.2-39.2,38.7-39.3c0.2,0,0.5,0,0.7,0c22,0,39.5,17,39.5,39.3
				c-0.1,21.8-17.9,39.4-39.7,39.3C123.3,108.6,105.7,91,105.6,69.4L105.6,69.4z M168.4,69.4c0-13.6-10.2-23.6-23.3-23.6
				s-23.3,10-23.3,23.6S132,93,145.1,93S168.4,83,168.4,69.4z"/>
			<path class="st1" d="M271.7,2.1v104.7h-16.2V96c-5.7,7.9-14.5,12.7-26.2,12.7c-20.3,0-37.2-17.2-37.2-39.3
				c0-22.3,16.9-39.3,37.2-39.3c11.7,0,20.5,4.8,26.2,12.6V2.1H271.7z M255.5,69.4c0-13.9-10.2-23.9-23.6-23.9s-23.6,10-23.6,23.9
				s10.2,23.9,23.6,23.9S255.5,83.3,255.5,69.4L255.5,69.4z"/>
			<path class="st1" d="M286.3,10.5c0-5.7,4.6-10.3,10.3-10.3S307,4.8,307,10.5s-4.6,10.3-10.3,10.3c0,0,0,0,0,0
				C291,20.8,286.3,16.1,286.3,10.5z M288.6,32h16.2v74.8h-16.2V32z"/>
			<path class="st1" d="M343,30.5V32h25.4v15.6H343v59.2h-16.2V47.5h-11.4V32h11.4v-1.5c0-20.2,11.4-31.9,33.8-30.4v15.6
				C349.3,14.6,343,19,343,30.5z"/>
			<path class="st1" d="M435.7,32L407,109.2c-7,19-19.3,28.6-36.5,27.5v-15.1c10.5,0.6,16.2-4.8,19.9-14.7l0.7-1.5L359.4,32h17.6
				l22.3,54.3L418.5,32L435.7,32z"/>
		</g>
	</g>
</g>
</svg>
