<?xml version="1.0" encoding="utf-8"?>
<!-- Generator: Adobe Illustrator 25.1.0, SVG Export Plug-In . SVG Version: 6.00 Build 0)  -->
<svg version="1.1" id="Layer_1" xmlns="http://www.w3.org/2000/svg" xmlns:xlink="http://www.w3.org/1999/xlink" x="0px" y="0px"
	 viewBox="0 0 178 55" style="enable-background:new 0 0 178 55;" xml:space="preserve">
<style type="text/css">
	.st0{fill:#FFFFFF;}
	.st1{fill:#85C446;}
</style>
<path class="st0" d="M15.2,8.5c-1.4,0-2.6,1.1-2.6,2.5c0.1,1.5,1.3,2.6,2.7,2.5c1.4-0.1,2.5-1.2,2.5-2.5C17.8,9.6,16.6,8.5,15.2,8.5
	"/>
<path class="st0" d="M7.5,22.3c0.9-0.4,1.1-1.7,0.5-2.9c-0.6-1.2-1.7-1.8-2.6-1.4C4.6,18.5,4.4,19.8,5,21
	C5.6,22.1,6.7,22.7,7.5,22.3"/>
<path class="st0" d="M10.4,18.5c1.4,0,2.5-1.2,2.5-2.7c0.1-1.4-1.1-2.6-2.5-2.7c0,0,0,0,0,0c-1.4,0-2.5,1.2-2.5,2.7c0,0,0,0,0,0
	C7.9,17.3,9,18.5,10.4,18.5"/>
<path class="st0" d="M3.2,21.5c-0.4,0.3-0.3,1.3,0.3,2.2C4.1,24.5,5,25,5.4,24.7c0.4-0.3,0.3-1.3-0.3-2.2
	C4.5,21.7,3.7,21.2,3.2,21.5"/>
<path class="st0" d="M22.8,22.3c0.9,0.4,2-0.2,2.6-1.4c0.6-1.2,0.3-2.5-0.5-2.9c-0.9-0.4-2,0.2-2.6,1.4C21.7,20.6,22,21.9,22.8,22.3
	"/>
<path class="st0" d="M20,18.5c1.4,0,2.5-1.2,2.5-2.7c0.1-1.4-0.9-2.6-2.3-2.7c-1.4-0.1-2.6,0.9-2.7,2.3c0,0.1,0,0.3,0,0.4
	C17.4,17.3,18.6,18.5,20,18.5"/>
<path class="st0" d="M26.8,23.6c0.6-0.9,0.7-1.9,0.3-2.2c-0.4-0.3-1.3,0.2-1.9,1.1c-0.6,0.9-0.7,1.9-0.3,2.2
	C25.4,25,26.2,24.5,26.8,23.6"/>
<path class="st1" d="M28.6,22.9c-0.2-0.1-0.1-0.8,0.2-1.5c0.3-0.8,0.7-1.4,0.9-1.3C30.2,20.4,28.9,23.1,28.6,22.9"/>
<path class="st1" d="M1.7,7.9C1.3,8.6,1,9.2,0.7,10C1,9.7,1.1,9.3,1.3,9C1.5,8.7,1.6,8.3,1.7,7.9"/>
<path class="st1" d="M28.7,7.9c0.4,0.6,0.7,1.3,0.9,2c-0.2-0.3-0.4-0.6-0.5-0.9C28.9,8.7,28.8,8.3,28.7,7.9"/>
<path class="st1" d="M11,0.7c-0.4,0.1-0.7,0.2-1.1,0.2c0-0.1,2-0.7,2.2-0.6C11.7,0.5,11.4,0.7,11,0.7"/>
<path class="st1" d="M3.9,5.1C4,5.1,3.7,5.6,3.2,6.2c-0.4,0.6-0.9,1-1,0.9C2.1,6.9,3.6,4.9,3.9,5.1"/>
<path class="st1" d="M5,10.8c-0.6,1.1-0.3,2.5,0.5,2.9c0.9,0.4,2-0.2,2.6-1.4c0.6-1.2,0.3-2.5-0.5-2.9C6.7,9,5.6,9.6,5,10.8"/>
<path class="st1" d="M1.4,14.4c0.4,0.1,0.9-0.6,1.1-1.6c0.2-1,0.1-1.9-0.3-1.9c-0.4-0.1-0.9,0.6-1.1,1.6C0.8,13.4,1,14.3,1.4,14.4"
	/>
<path class="st1" d="M15.2,23.1c1.4-0.1,2.4-1.3,2.3-2.6c-0.1-1.4-1.2-2.4-2.6-2.4c-1.3,0.1-2.4,1.2-2.4,2.5
	C12.6,22,13.8,23.1,15.2,23.1"/>
<path class="st1" d="M2.5,19.1c-0.2-1-0.8-1.7-1.1-1.6c-0.4,0.1-0.5,1-0.3,1.9c0.2,1,0.8,1.7,1.1,1.6C2.6,21,2.7,20.1,2.5,19.1"/>
<path class="st1" d="M2.2,15.9c0,1.2,0.6,2.1,1.3,2.1c0.7,0,1.2-1,1.2-2.1s-0.6-2.1-1.2-2.1C2.7,13.8,2.2,14.7,2.2,15.9"/>
<path class="st1" d="M0.4,14.4C0.2,14.4,0,15.1,0,16c0,0.9,0.2,1.6,0.4,1.6s0.4-0.7,0.4-1.6C0.9,15.1,0.7,14.4,0.4,14.4"/>
<path class="st1" d="M8.8,8.3c0.4,0.9,1.7,1.1,2.9,0.4C12.9,8.2,13.5,7,13,6.1c-0.4-0.9-1.8-1.1-2.9-0.4C9,6.3,8.4,7.5,8.8,8.3"/>
<path class="st1" d="M7.5,4.3C6.6,4.9,6.1,5.8,6.4,6.2c0.3,0.4,1.3,0.3,2.1-0.3C9.4,5.2,9.9,4.4,9.6,4C9.3,3.5,8.4,3.7,7.5,4.3"/>
<path class="st1" d="M3.6,8.1C3,9,2.8,10,3.3,10.3c0.4,0.3,1.3-0.2,1.9-1.1C5.8,8.3,5.9,7.3,5.4,7C5,6.8,4.2,7.2,3.6,8.1"/>
<path class="st1" d="M0.6,11.8c0.2,0.1,0.6-0.5,0.9-1.3C1.8,9.7,1.9,9,1.7,9c-0.2-0.1-0.6,0.5-0.9,1.3C0.6,11,0.4,11.7,0.6,11.8"/>
<path class="st1" d="M12.9,25.6c0.4-0.9-0.1-2-1.3-2.6c-1.2-0.6-2.5-0.4-2.9,0.4c-0.4,0.8,0.1,2,1.3,2.6
	C11.1,26.6,12.4,26.4,12.9,25.6"/>
<path class="st1" d="M1.8,22.9c0.2-0.1,0.1-0.8-0.2-1.5c-0.3-0.8-0.7-1.4-0.9-1.3C0.2,20.4,1.5,23.1,1.8,22.9"/>
<path class="st1" d="M3.8,7.3c0.5-0.7,0.8-1.4,0.6-1.5c-0.2-0.1-0.8,0.3-1.3,1C2.5,7.5,2.3,8.2,2.5,8.3C2.7,8.4,3.2,8,3.8,7.3"/>
<path class="st1" d="M13.1,4.1c0,0.7,1,1.2,2.1,1.2c1.2,0,2.1-0.6,2.1-1.2c0-0.7-1-1.2-2.1-1.2C14,2.8,13.1,3.4,13.1,4.1"/>
<path class="st1" d="M8.4,25.9c-0.9-0.6-1.9-0.8-2.1-0.3C6,26,6.5,26.8,7.4,27.4c0.9,0.6,1.9,0.8,2.1,0.3
	C9.8,27.3,9.3,26.5,8.4,25.9"/>
<path class="st1" d="M2.4,23.4c-0.2,0.1,0.1,0.8,0.6,1.5s1.1,1.1,1.3,1c0.2-0.1-0.1-0.8-0.6-1.6C3.2,23.7,2.6,23.3,2.4,23.4"/>
<path class="st1" d="M17.3,27.6c0-0.7-1-1.2-2.1-1.2c-1.2,0-2.1,0.6-2.1,1.2s1,1.2,2.1,1.2C16.4,28.8,17.3,28.2,17.3,27.6"/>
<path class="st1" d="M11.7,1.8c-1,0.2-1.7,0.7-1.6,1.1c0.1,0.4,1,0.5,1.9,0.3c1-0.2,1.7-0.7,1.6-1.1C13.6,1.7,12.7,1.5,11.7,1.8"/>
<path class="st1" d="M6.1,3.7C5.4,4.2,4.9,4.8,5.1,5c0.1,0.2,0.8-0.1,1.5-0.6c0.7-0.5,1.1-1.1,1-1.3C7.5,2.9,6.8,3.2,6.1,3.7"/>
<path class="st1" d="M11.9,28.5c-1-0.2-1.8-0.1-1.9,0.3c-0.1,0.4,0.6,0.9,1.6,1.1c1,0.2,1.8,0.1,1.9-0.3
	C13.6,29.2,12.8,28.7,11.9,28.5"/>
<path class="st1" d="M7.6,28.6c0.1-0.2-0.3-0.8-1-1.3c-0.7-0.5-1.4-0.8-1.5-0.6c-0.1,0.2,0.1,0.5,0.6,0.9c0.4,0.3,0.7,0.6,1.1,0.8
	C7.1,28.6,7.5,28.7,7.6,28.6"/>
<path class="st1" d="M13.6,1.1c0,0.2,0.7,0.4,1.6,0.4s1.6-0.2,1.6-0.4s-0.7-0.4-1.6-0.4S13.6,0.9,13.6,1.1"/>
<path class="st1" d="M8.2,2.4C8.3,2.6,9,2.5,9.8,2.2c0.8-0.3,1.4-0.7,1.3-0.9C11,1.1,10.3,1.3,9.6,1.6C8.8,1.9,8.2,2.3,8.2,2.4"/>
<path class="st1" d="M5.6,3.8c0.6-0.5,1-0.9,0.9-1C6.5,2.8,6,3.1,5.4,3.5s-1,0.9-0.9,1C4.5,4.6,5.1,4.3,5.6,3.8"/>
<path class="st1" d="M16.8,30.5c0-0.2-0.7-0.4-1.6-0.4s-1.6,0.2-1.6,0.4s0.7,0.4,1.6,0.4h0.3C16.2,30.9,16.8,30.7,16.8,30.5"/>
<path class="st1" d="M30.1,19.6c0,0.2,0.6-2.6,0.5-2.5c-0.2,0.4-0.3,0.8-0.4,1.3C30.1,18.8,30,19.2,30.1,19.6"/>
<path class="st1" d="M12.7,0.9c0.8-0.1,1.3-0.3,1.3-0.4c0-0.1-0.6-0.1-1.4,0s-1.3,0.3-1.3,0.4C11.4,1,12,1,12.7,0.9"/>
<path class="st1" d="M8.3,2c0.6-0.3,1.1-0.6,1.1-0.7c0-0.1-0.6,0.1-1.2,0.4C7.5,2,7.1,2.3,7.1,2.4C7.1,2.5,7.7,2.3,8.3,2"/>
<path class="st1" d="M14,0.1c0,0.1,0.5,0.1,1.2,0.1c0.7,0,1.2-0.1,1.2-0.1S16.1,0,15.7,0h-0.5h0h-0.4C14.3,0,14,0.1,14,0.1"/>
<path class="st1" d="M22.8,9.4c-0.9,0.4-1.1,1.7-0.5,2.9c0.6,1.2,1.7,1.8,2.6,1.4c0.9-0.4,1.1-1.7,0.5-2.9C24.8,9.6,23.7,9,22.8,9.4
	"/>
<path class="st1" d="M28.2,10.8c-0.4,0.1-0.5,1-0.3,1.9c0.2,1,0.7,1.7,1.1,1.6c0.4-0.1,0.5-1,0.3-1.9C29.1,11.4,28.6,10.7,28.2,10.8
	"/>
<path class="st1" d="M29,17.5c-0.4-0.1-0.9,0.6-1.1,1.6c-0.3,1-0.1,1.9,0.3,1.9c0.4,0.1,0.9-0.6,1.1-1.6
	C29.5,18.5,29.4,17.6,29,17.5"/>
<path class="st1" d="M26.9,18.1c0.7,0,1.3-1,1.3-2.1c0-1.2-0.6-2.1-1.3-2.1s-1.3,1-1.3,2.1C25.7,17.1,26.3,18.1,26.9,18.1"/>
<path class="st1" d="M29.9,14.4c-0.2,0-0.4,0.7-0.4,1.6c0,0.9,0.2,1.6,0.4,1.6c0.2,0,0.4-0.7,0.4-1.6C30.4,15.1,30.2,14.4,29.9,14.4
	"/>
<path class="st1" d="M17.3,6.1c-0.4,0.9,0.1,2,1.3,2.6c1.2,0.6,2.5,0.4,2.9-0.4c0.4-0.9-0.1-2-1.3-2.6C19.1,5.1,17.8,5.3,17.3,6.1"
	/>
<path class="st1" d="M20.7,4c-0.3,0.4,0.2,1.3,1.1,1.9c0.9,0.6,1.9,0.8,2.1,0.3c0.3-0.4-0.2-1.3-1.1-1.9C22,3.7,21,3.5,20.7,4"/>
<path class="st1" d="M27.1,10.3c0.4-0.3,0.3-1.3-0.3-2.2c-0.6-0.9-1.4-1.4-1.9-1.1c-0.4,0.3-0.3,1.3,0.3,2.2
	C25.8,10.1,26.6,10.6,27.1,10.3"/>
<path class="st1" d="M29.7,11.8c0.2-0.1,0.1-0.8-0.2-1.5c-0.3-0.8-0.7-1.4-0.9-1.3c-0.2,0.1-0.1,0.8,0.2,1.5
	C29.1,11.3,29.5,11.8,29.7,11.8"/>
<path class="st1" d="M21.7,23.4c-0.4-0.9-1.7-1.1-2.9-0.4c-1.2,0.6-1.7,1.8-1.3,2.6c0.4,0.9,1.7,1.1,2.9,0.5
	C21.5,25.4,22.1,24.2,21.7,23.4"/>
<path class="st1" d="M27.9,8.3c0.2-0.1-0.1-0.8-0.6-1.5c-0.5-0.7-1.1-1.2-1.3-1c-0.2,0.2,0.1,0.8,0.6,1.5C27.1,8,27.7,8.4,27.9,8.3"
	/>
<path class="st1" d="M21.9,25.9c-0.9,0.6-1.4,1.5-1.1,1.9c0.3,0.4,1.2,0.3,2.1-0.3c0.9-0.6,1.4-1.5,1.1-1.9
	C23.8,25.1,22.8,25.3,21.9,25.9"/>
<path class="st1" d="M26.6,24.4c-0.5,0.7-0.8,1.4-0.6,1.5c0.2,0.1,0.8-0.3,1.3-1c0.5-0.7,0.8-1.4,0.6-1.6
	C27.8,23.3,27.2,23.7,26.6,24.4"/>
<path class="st1" d="M26.5,5.1c-0.1,0.1,0.2,0.6,0.7,1.1c0.4,0.6,0.9,1,1,0.9C28.2,6.9,26.7,4.9,26.5,5.1"/>
<path class="st1" d="M18.6,1.8c-1-0.2-1.8-0.1-1.9,0.3c-0.1,0.4,0.6,0.9,1.6,1.1c1,0.2,1.8,0.1,1.9-0.3C20.3,2.5,19.6,2,18.6,1.8"/>
<path class="st1" d="M24.3,3.7c-0.7-0.5-1.4-0.8-1.5-0.6c-0.1,0.2,0.3,0.8,1,1.3c0.7,0.5,1.4,0.8,1.5,0.6C25.4,4.8,25,4.3,24.3,3.7"
	/>
<path class="st1" d="M18.5,28.5c-1,0.2-1.7,0.7-1.6,1.1c0.1,0.4,1,0.5,1.9,0.3c1-0.2,1.7-0.7,1.6-1.1C20.3,28.4,19.5,28.2,18.5,28.5
	"/>
<path class="st1" d="M25.3,26.6c-0.1-0.2-0.8,0.1-1.5,0.6c-0.7,0.5-1.1,1.1-1,1.3c0.1,0.1,0.4,0,0.9-0.2c0.4-0.2,0.7-0.5,1.1-0.8
	C25.2,27.2,25.5,26.8,25.3,26.6"/>
<path class="st1" d="M20.6,2.2c0.8,0.3,1.5,0.4,1.5,0.2c0.1-0.2-0.5-0.6-1.3-0.9c-0.8-0.3-1.5-0.4-1.5-0.2
	C19.2,1.5,19.8,1.9,20.6,2.2"/>
<path class="st1" d="M24.7,3.8c0.6,0.5,1.1,0.8,1.1,0.7c0.1-0.1-0.3-0.5-0.9-1s-1.1-0.8-1.1-0.7C23.8,3,24.2,3.4,24.7,3.8"/>
<path class="st1" d="M20.8,29.4c-0.8,0.3-1.4,0.7-1.3,0.9c0,0,2.8-1.1,2.8-1.1C22.2,29,21.5,29.1,20.8,29.4"/>
<path class="st1" d="M20.8,29.4c-0.8,0.3-1.4,0.8-1.3,0.9c0.1,0.1,2.8-1,2.8-1.1C22.4,28.9,21.5,29.1,20.8,29.4"/>
<path class="st1" d="M17.6,0.9C18.4,1,19,1,19,0.9c0-0.1-0.6-0.3-1.3-0.4s-1.4-0.1-1.4,0C16.3,0.6,16.9,0.8,17.6,0.9"/>
<path class="st1" d="M22.1,2c0.6,0.3,1.2,0.5,1.2,0.4c0-0.1-0.4-0.4-1.1-0.7C21.6,1.4,21,1.2,21,1.3C21,1.4,21.4,1.7,22.1,2"/>
<path class="st1" d="M19.4,0.7c0.4,0.1,0.7,0.2,1.1,0.2c0-0.1-2-0.7-2.2-0.6C18.6,0.5,19,0.7,19.4,0.7"/>
<path class="st1" d="M30.1,13.4c-0.1-0.8-0.1-1.3,0-1.4c0.3-0.1,0.5,2.7,0.4,2.7S30.3,14.2,30.1,13.4"/>
<path class="st1" d="M9.6,29.4c0.8,0.3,1.4,0.8,1.3,0.9c-0.1,0.1-2.8-1-2.8-1.1C8,29,8.8,29.1,9.6,29.4"/>
<path class="st1" d="M18.1,30.5c0.4-0.1,0.8-0.1,1.1-0.1c0,0.1-2.1,0.6-2.2,0.4C17.3,30.7,17.7,30.6,18.1,30.5"/>
<path class="st1" d="M12.4,30.5c-0.4-0.1-0.8-0.1-1.1-0.1c0,0.1,2.1,0.6,2.2,0.4C13.2,30.7,12.8,30.6,12.4,30.5"/>
<path class="st0" d="M175,11.7c1.2-0.4,2.5,0.2,2.9,1.4c0.2,0.5,0.2,1,0,1.5c-0.2,0.7-0.7,1.2-1.4,1.4c-1.2,0.4-2.5-0.2-2.9-1.4
	c-0.2-0.5-0.2-1,0-1.5C173.9,12.5,174.4,12,175,11.7 M175.3,15.7c1,0.2,2-0.4,2.2-1.3c0.2-1-0.4-2-1.3-2.2c-1-0.2-2,0.4-2.2,1.3
	c-0.1,0.3-0.1,0.6,0,0.9C174.1,15,174.6,15.5,175.3,15.7 M174.9,12.6h1c0.6,0,0.9,0.3,0.9,0.8c0,0.4-0.2,0.7-0.6,0.7c0,0,0,0,0,0
	l0.7,1.1h-0.5l-0.6-1h-0.3v1h-0.5L174.9,12.6L174.9,12.6z M175.4,13.7h0.3c0.3,0,0.6,0,0.6-0.4c0-0.4-0.3-0.4-0.6-0.4h-0.3V13.7z"/>
<path class="st0" d="M50.3,3.3l11.4,24.9c0.1,0.2,0,0.4-0.2,0.5c0,0-0.1,0-0.2,0h-2.6c-0.1,0-0.3-0.1-0.3-0.2l-2.5-5.6
	c-0.1-0.1-0.2-0.2-0.3-0.2H44.3c-0.1,0-0.3,0.1-0.3,0.2l-2.6,5.6c-0.1,0.1-0.2,0.2-0.3,0.2h-2.6c-0.2,0-0.4-0.2-0.4-0.3
	c0-0.1,0-0.1,0-0.2L49.7,3.3c0.1-0.2,0.3-0.3,0.5-0.2C50.2,3.2,50.3,3.2,50.3,3.3 M54.3,19.3l-4-8.7c-0.1-0.2-0.3-0.3-0.5-0.2
	c-0.1,0-0.1,0.1-0.2,0.2l-4,8.7c-0.1,0.2,0,0.4,0.2,0.5c0,0,0.1,0,0.1,0h8c0.2,0,0.4-0.2,0.4-0.4C54.3,19.4,54.3,19.4,54.3,19.3"/>
<path class="st0" d="M65,5.9l2.4-1.2c0.2-0.1,0.4,0,0.5,0.2c0,0.1,0,0.1,0,0.2v23.3c0,0.2-0.2,0.4-0.4,0.4h-2.4
	c-0.2,0-0.4-0.2-0.4-0.4V6.2C64.8,6.1,64.8,6,65,5.9"/>
<path class="st0" d="M72.1,2.6l2.4-1.2c0.2-0.1,0.4,0,0.5,0.2c0,0,0,0.1,0,0.2v26.6c0,0.2-0.2,0.4-0.4,0.4h-2.3
	c-0.2,0-0.4-0.2-0.4-0.4V2.9C71.9,2.8,72,2.7,72.1,2.6"/>
<path class="st0" d="M87.4,16.4c-0.1,0.1-0.3,0.1-0.5,0c-0.8-0.9-1.9-1.4-3.1-1.4c-1.4,0-2.7,0.6-2.7,1.8c0,2,2.8,2.2,4.1,2.5
	C87.9,20,90,21,90,24c0,3.7-3.3,5.1-6.6,5.1c-2.6,0-4.5-0.6-6-2.6c-0.1-0.2-0.1-0.4,0.1-0.5l1.8-1.5c0.1-0.1,0.3-0.1,0.5,0
	c0.9,0.9,2.1,1.7,3.7,1.7c1.6,0,3.3-0.6,3.3-2.1c0-1.8-2.6-2.2-3.9-2.5c-2.6-0.7-5-1.5-5-4.6c0-3.4,3.1-5,6.2-5c2,0,4.1,0.7,5.4,2.4
	c0.1,0.2,0.1,0.4-0.1,0.5L87.4,16.4z"/>
<path class="st0" d="M104.6,16.6c-0.1,0.1-0.4,0.1-0.5,0c-1-1-2.4-1.6-3.8-1.6c-3.3,0-5.1,2.7-5.1,5.7c0,3,2,5.5,5.2,5.5
	c1.4,0.1,2.7-0.5,3.7-1.5c0.1-0.1,0.4-0.1,0.5,0c0,0,0,0,0,0l1.7,1.7c0.1,0.1,0.1,0.4,0,0.5c-1.5,1.6-3.6,2.2-5.7,2.2
	c-4.7,0.1-8.6-3.7-8.6-8.4c0,0,0,0,0-0.1c0-5,3.4-8.6,8.5-8.6c2.2-0.1,4.4,0.8,6,2.3c0.1,0.1,0.1,0.4,0,0.5l0,0L104.6,16.6z"/>
<path class="st0" d="M109.8,12.5h2.4c0.2,0,0.4,0.2,0.4,0.4V15h0.1c0.8-1.7,2.8-2.9,4.9-2.9c0.4,0,0.7,0,1.1,0.1
	c0.2,0,0.3,0.2,0.3,0.4l-0.1,2.6c0,0.2-0.2,0.3-0.4,0.3c0,0,0,0-0.1,0c-0.4-0.1-0.7-0.1-1.1-0.1c-3,0-4.6,1.6-4.6,5.2v7.8
	c0,0.2-0.2,0.4-0.4,0.4h-2.4c-0.2,0-0.4-0.2-0.4-0.4V12.9C109.4,12.7,109.6,12.5,109.8,12.5"/>
<path class="st0" d="M122.6,4.6c1.2-0.4,2.5,0.2,2.9,1.4c0.4,1.2-0.2,2.5-1.4,2.9c-1.2,0.4-2.5-0.2-2.9-1.4c-0.2-0.5-0.2-1,0-1.5
	C121.4,5.3,121.9,4.8,122.6,4.6 M122.1,12.5h2.4c0.2,0,0.4,0.2,0.4,0.4v15.5c0,0.2-0.2,0.4-0.4,0.4h-2.4c-0.2,0-0.4-0.2-0.4-0.4
	V12.9C121.8,12.7,122,12.5,122.1,12.5"/>
<path class="st0" d="M129,12.5h2.4c0.2,0,0.4,0.2,0.4,0.4v2h0.1c1.2-1.7,3.4-2.7,5.6-2.7c5,0,8.2,3.7,8.2,8.5c0,4.9-3.2,8.5-8.2,8.5
	c-2.3,0-4.5-1.1-5.6-2.7h-0.1V35c0,0.1-0.1,0.3-0.2,0.3l-2.4,1.2c-0.2,0.1-0.4,0-0.5-0.2c0,0,0-0.1,0-0.2V12.9
	C128.7,12.7,128.8,12.5,129,12.5L129,12.5 M131.8,20.1c-0.2,3.6,1.9,6.2,5.4,6.2c2.8-0.1,5.1-2.3,5.3-5.1c0.2-3.6-1.9-6.2-5.4-6.1
	C134.2,15,131.9,17.3,131.8,20.1"/>
<path class="st0" d="M169.8,16.4c-0.1,0.1-0.4,0.1-0.5,0c-0.8-0.9-1.9-1.4-3.1-1.4c-1.4,0-2.7,0.6-2.7,1.8c0,2,2.8,2.2,4.1,2.5
	c2.7,0.7,4.7,1.7,4.7,4.7c0,3.7-3.3,5.1-6.6,5.1c-2.6,0-4.5-0.6-6-2.6c-0.1-0.2-0.1-0.4,0.1-0.5l1.8-1.5c0.1-0.1,0.3-0.1,0.5,0
	c0.9,0.9,2.1,1.7,3.7,1.7c1.6,0,3.3-0.6,3.3-2.1c0-1.8-2.6-2.2-3.9-2.5c-2.6-0.6-4.9-1.5-4.9-4.6c0-3.4,3.1-5,6.1-5
	c2,0,4.2,0.7,5.4,2.4c0.1,0.2,0.1,0.4-0.1,0.5L169.8,16.4z"/>
<path class="st0" d="M152.7,22.5v-6.7c0-0.2,0.2-0.4,0.3-0.4h0h2.7c0.1,0,0.3-0.1,0.3-0.2l1.2-2.4c0.1-0.2,0-0.4-0.2-0.5
	c0,0-0.1,0-0.2,0H153c-0.2,0-0.4-0.2-0.4-0.3v0V7.9c0-0.2-0.2-0.4-0.4-0.4c-0.1,0-0.1,0-0.2,0l-2.4,1.2c-0.1,0.1-0.2,0.2-0.2,0.3V12
	c0,0.2-0.2,0.4-0.4,0.4h-1.7c-0.2,0-0.4,0.2-0.4,0.4v2.4c0,0.2,0.2,0.4,0.4,0.4h1.7c0.2,0,0.4,0.2,0.4,0.4v7.8
	c0,2.6,0.1,5.5,4.8,5.5c0.9,0,1.7-0.1,2.5-0.4c0.1-0.1,0.2-0.2,0.2-0.3v-2c0-0.2-0.2-0.4-0.3-0.4c0,0-0.1,0-0.1,0
	c-0.6,0.2-1.1,0.3-1.7,0.3C152.7,26.2,152.7,24.3,152.7,22.5"/>
</svg>
